<?xml version="1.0" standalone="no"?>
<!DOCTYPE svg PUBLIC "-//W3C//DTD SVG 20010904//EN"
 "http://www.w3.org/TR/2001/REC-SVG-20010904/DTD/svg10.dtd">
<svg version="1.0" xmlns="http://www.w3.org/2000/svg"
 width="2400.000000pt" height="2400.000000pt" viewBox="0 0 2400.000000 2400.000000"
 preserveAspectRatio="xMidYMid meet">
<metadata>
Created by potrace 1.14, written by Peter Selinger 2001-2017
</metadata>
<g transform="translate(0.000000,2400.000000) scale(0.100000,-0.100000)"
fill="#000000" stroke="none">
<path d="M4105 22599 c-1278 -78 -2386 -938 -2779 -2158 -51 -158 -89 -320
-119 -511 l-22 -135 0 -7795 0 -7795 22 -135 c104 -652 364 -1198 789 -1662
555 -605 1302 -957 2134 -1008 227 -14 15513 -14 15740 0 577 35 1087 204
1555 515 360 240 640 520 883 885 253 379 407 783 485 1270 l22 135 0 7795 0
7795 -22 135 c-78 487 -232 891 -485 1270 -245 368 -520 644 -888 888 -460
307 -975 477 -1550 512 -199 12 -15566 11 -15765 -1z m15235 -2241 c339 -53
615 -149 874 -304 605 -363 1002 -953 1113 -1654 25 -159 25 -499 0 -660 -65
-415 -233 -795 -492 -1115 -86 -106 -251 -271 -350 -350 -248 -199 -574 -361
-884 -440 -244 -62 -184 -59 -1403 -62 l-1118 -4 -3 -5277 c-2 -4830 -4 -5286
-19 -5382 -42 -271 -102 -467 -213 -695 -224 -462 -587 -827 -1060 -1066 -346
-174 -675 -252 -1070 -252 -488 -1 -914 125 -1319 390 -134 88 -222 158 -345
277 -357 346 -576 754 -674 1251 l-21 110 -6 5320 -5 5320 -1622 3 -1623 2 -3
-5302 c-2 -4953 -4 -5309 -20 -5400 -35 -202 -81 -363 -144 -518 -293 -711
-926 -1236 -1688 -1404 -240 -52 -584 -66 -820 -32 -914 130 -1662 749 -1934
1600 -38 117 -63 223 -88 366 -17 100 -18 348 -20 5478 -2 2954 -1 5372 2
5372 3 0 49 -46 103 -101 466 -487 1095 -819 1757 -928 383 -63 812 -53 1190
29 491 107 967 341 1355 668 52 43 160 146 240 228 424 435 710 978 830 1574
46 232 55 331 55 630 0 236 -4 297 -24 430 -49 326 -143 631 -282 920 -166
342 -349 601 -616 869 -68 68 -123 125 -123 127 0 3 2332 3 5183 1 4750 -2
5191 -4 5287 -19z m-12354 -59 c559 -54 1094 -324 1472 -741 387 -429 593
-960 595 -1533 1 -369 -71 -681 -232 -1010 -233 -473 -589 -829 -1061 -1061
-312 -154 -634 -227 -995 -227 -271 -1 -464 30 -720 114 -523 172 -966 528
-1255 1009 -225 373 -332 792 -317 1240 12 354 80 627 237 945 286 579 819
1021 1435 1190 283 78 558 102 841 74z"/>
</g>
</svg>
