<?xml version="1.0" standalone="no"?>
<!DOCTYPE svg PUBLIC "-//W3C//DTD SVG 20010904//EN"
 "http://www.w3.org/TR/2001/REC-SVG-20010904/DTD/svg10.dtd">
<svg version="1.0" xmlns="http://www.w3.org/2000/svg"
 width="120.000000pt" height="120.000000pt" viewBox="0 0 120.000000 120.000000"
 preserveAspectRatio="xMidYMid meet">
<metadata>
Created by potrace 1.14, written by Peter Selinger 2001-2017
</metadata>
<g transform="translate(0.000000,120.000000) scale(0.100000,-0.100000)"
fill="#000000" stroke="none">
<path d="M473 1126 c-191 -46 -353 -209 -398 -397 -26 -110 -12 -260 30 -337
14 -25 14 -23 9 43 -5 52 -2 85 12 130 10 34 18 93 19 135 0 62 5 85 29 133
87 179 311 293 504 258 170 -30 319 -153 373 -306 14 -41 17 -64 10 -98 -6
-34 -4 -54 7 -78 11 -23 16 -67 16 -136 1 -88 3 -99 13 -78 24 44 43 139 43
210 0 245 -173 464 -412 520 -76 18 -184 18 -255 1z"/>
<path d="M395 775 c-31 -30 -33 -82 -5 -113 43 -45 110 -11 110 55 0 37 -36
83 -65 83 -9 0 -27 -11 -40 -25z"/>
<path d="M734 788 c-23 -11 -44 -48 -44 -77 0 -32 39 -71 70 -71 61 0 86 94
36 137 -30 26 -32 26 -62 11z"/>
<path d="M268 511 c-29 -26 -32 -34 -32 -83 0 -71 21 -104 69 -110 20 -2 38 0
41 4 3 4 -4 8 -14 8 -25 0 -58 29 -67 58 l-6 22 341 0 341 0 -7 -22 c-10 -34
-23 -47 -58 -58 -28 -9 -27 -9 13 -5 57 7 58 8 72 58 14 53 -1 108 -38 136
-25 20 -38 21 -324 21 l-299 0 -32 -29z m641 -16 c10 -11 22 -30 26 -42 l6
-23 -340 0 c-270 0 -341 3 -341 13 0 20 30 58 54 67 11 5 146 8 298 7 263 -2
278 -3 297 -22z"/>
<path d="M120 359 c2 -20 37 -105 45 -107 22 -7 14 29 -14 69 -17 23 -31 40
-31 38z"/>
<path d="M446 322 c-9 -2 -14 -7 -11 -12 6 -9 264 -4 273 5 3 3 -17 5 -44 5
-27 1 -83 2 -125 3 -42 1 -83 1 -93 -1z"/>
<path d="M725 320 c-3 -5 1 -10 10 -10 9 0 13 5 10 10 -3 6 -8 10 -10 10 -2 0
-7 -4 -10 -10z"/>
<path d="M1026 273 c-6 -14 -5 -15 5 -6 7 7 10 15 7 18 -3 3 -9 -2 -12 -12z"/>
<path d="M840 262 c0 -5 7 -9 15 -9 8 0 15 4 15 9 0 4 -7 8 -15 8 -8 0 -15 -4
-15 -8z"/>
<path d="M717 247 c-4 -10 2 -13 19 -9 13 2 21 8 18 13 -8 14 -31 11 -37 -4z"/>
<path d="M778 238 c7 -7 12 -39 12 -75 0 -40 4 -63 11 -63 8 0 9 18 5 58 -9
74 -15 92 -29 92 -8 0 -8 -3 1 -12z"/>
<path d="M915 160 c-3 -5 1 -10 9 -10 9 0 16 5 16 10 0 6 -4 10 -9 10 -6 0
-13 -4 -16 -10z"/>
<path d="M340 146 c0 -8 5 -18 10 -21 6 -3 10 1 10 9 0 8 -4 18 -10 21 -5 3
-10 -1 -10 -9z"/>
<path d="M485 60 c3 -5 8 -10 11 -10 2 0 4 5 4 10 0 6 -5 10 -11 10 -5 0 -7
-4 -4 -10z"/>
<path d="M695 60 c3 -5 10 -10 16 -10 5 0 9 5 9 10 0 6 -7 10 -16 10 -8 0 -12
-4 -9 -10z"/>
</g>
</svg>
